<svg >

<!-- * IDEA  -->

  <symbol xmlns="http://www.w3.org/2000/svg" xml:space="preserve" viewBox="0 0 512 512" id="idea">
    <path d="M51 221c0-5.523-4.478-10-10-10H11c-5.523 0-10 4.477-10 10s4.477 10 10 10h30c5.522 0 10-4.477 10-10zm-14.142-67.071c-3.906-3.904-10.236-3.904-14.143 0-3.905 3.905-3.905 10.237 0 14.143l21.213 21.213c3.908 3.906 10.236 3.904 14.143 0 3.905-3.905 3.905-10.237 0-14.143l-21.213-21.213zm7.071 98.787-21.213 21.213c-3.905 3.905-3.905 10.237 0 14.143 3.908 3.906 10.236 3.904 14.143 0l21.213-21.213c3.905-3.905 3.905-10.237 0-14.143-3.907-3.905-10.237-3.905-14.143 0zM501 211h-30c-5.522 0-10 4.477-10 10s4.478 10 10 10h30c5.522 0 10-4.477 10-10s-4.478-10-10-10zm-47.071-21.716c3.908 3.906 10.236 3.904 14.143 0l21.213-21.213c3.905-3.905 3.905-10.237 0-14.143-3.906-3.904-10.236-3.904-14.143 0l-21.213 21.213c-3.906 3.906-3.906 10.238 0 14.143zm14.142 63.432c-3.906-3.904-10.236-3.904-14.143 0-3.905 3.905-3.905 10.237 0 14.143l21.213 21.213c3.908 3.906 10.236 3.904 14.143 0 3.905-3.905 3.905-10.237 0-14.143l-21.213-21.213zM451 101C451 45.859 406.141 1 351 1c-48.481 0-89.009 34.681-98.092 80.536-34.182-3.149-68.318 7.412-95.015 29.698-52.823 44.095-62.034 120.608-22.512 175.585 27.249 37.893 42.809 81.298 45.27 126.023C169.193 417.065 161 428.094 161 441c0 16.542 13.458 30 30 30h1.006c4.646 22.795 24.847 40 48.994 40s44.348-17.205 48.994-40H291c16.542 0 30-13.458 30-30 0-12.794-8.053-23.737-19.354-28.042 3.249-45.953 18.781-89.505 45.181-126.435 18.036-25.243 26.414-56.607 23.624-87.429C416.313 190.017 451 149.486 451 101zM241 491c-13.037 0-24.159-8.359-28.286-20h56.572c-4.127 11.641-15.249 20-28.286 20zm50-40H191c-5.514 0-10-4.486-10-10s4.486-10 10-10c111.48 0 99.259.01 100.19.01 5.425.103 9.81 4.54 9.81 9.99 0 5.514-4.486 10-10 10zm-50-160c-11.028 0-20-8.972-20-20s8.972-20 20-20 20 8.972 20 20-8.972 20-20 20zm89.556-16.105c-28.45 39.795-45.232 86.668-48.825 136.105H251V309.734c17.233-4.452 30-20.13 30-38.734 0-22.056-17.944-40-40-40s-40 17.944-40 40c0 18.604 12.767 34.282 30 38.734V411h-30.418c-2.798-48.28-19.624-95.057-48.963-135.856-33.368-46.418-25.727-111.145 19.09-148.557 22.573-18.843 51.421-27.788 80.297-25.144.24 54.785 44.755 99.305 99.538 99.551 2.342 26.058-4.745 52.566-19.988 73.901zM351 181c-44.112 0-80-35.888-80-80s35.888-80 80-80 80 35.888 80 80-35.888 80-80 80z"></path>
    <path d="M381.429 67.679 336 113.107l-15.429-15.429c-3.906-3.904-10.236-3.904-14.143 0-3.905 3.905-3.905 10.237 0 14.143l22.5 22.5c3.908 3.906 10.236 3.904 14.143 0l52.5-52.5c3.905-3.905 3.905-10.237 0-14.143-3.906-3.904-10.236-3.904-14.142.001z"></path>
  </symbol>

<!-- * Task  -->

  <symbol xmlns="http://www.w3.org/2000/svg" xml:space="preserve" viewBox="0 0 64 64" id="task">
    <path d="M31.31 35.67c0-.44-.36-.8-.8-.8H9.5c-.44 0-.8.36-.8.8 0 .44.36.8.8.8h21.01c.44 0 .8-.36.8-.8zm-2.63 4.85H9.5c-.44 0-.8.36-.8.8 0 .44.36.8.8.8h19.18c.44 0 .8-.36.8-.8 0-.44-.36-.8-.8-.8zm11.52 1.6c.44 0 .8-.36.8-.8 0-.44-.36-.8-.8-.8h-4.37c-.44 0-.8.36-.8.8 0 .44.36.8.8.8h4.37zM23.9 23.31c-.44 0-.8.36-.8.8 0 .44.36.8.8.8h11.72c.44 0 .8-.36.8-.8 0-.44-.36-.8-.8-.8H23.9zm14.92-5.13c0-.44-.36-.8-.8-.8H23.9c-.44 0-.8.36-.8.8 0 .44.36.8.8.8h14.12c.44 0 .8-.36.8-.8zm1.38 33.64H9.5c-.44 0-.8.36-.8.8 0 .44.36.8.8.8h30.7c.44 0 .8-.36.8-.8 0-.44-.36-.8-.8-.8zM8.7 46.98c0 .44.36.8.8.8h30.7c.44 0 .8-.36.8-.8 0-.44-.36-.8-.8-.8H9.5c-.44 0-.8.36-.8.8zM6.28 23.74h10.25c.44 0 .8-.36.8-.8V11.85c0-.33-.2-.63-.51-.74-.31-.12-.66-.04-.88.2L5.69 22.4c-.22.23-.27.57-.15.86.14.29.42.48.74.48zm9.45-9.85v8.25H8.11l7.62-8.25z"></path>
    <path d="m57.16 5.03-.33-.25c-.68-.47-1.53-.63-2.46-.45-1.38.26-2.76 1.25-3.69 2.63L35.06 29.58c-.15-.2-.37-.34-.64-.34H9.5c-.44 0-.8.36-.8.8 0 .44.36.8.8.8h24.7c-.91 1.34-1.04 1.69-1.08 1.83l-2.79 9.05c-.1.33.02.68.29.88.14.1.31.15.47.15.16 0 .32-.05.46-.14l7.66-5.31.03-.03c.52-.41.91-.87 1.32-1.4.01-.01.02-.03.03-.04l3.11-4.51v26.81H7.08V26.19h12.08c.44 0 .8-.36.8-.8V12.65h24.56c.44 0 .8-.36.8-.8 0-.44-.36-.8-.8-.8H19.16c-.44 0-.8.36-.8.8v12.74H6.28c-.44 0-.8.36-.8.8v33.54c0 .44.36.8.8.8h38.23c.44 0 .8-.36.8-.8V29.18c0-.05-.02-.09-.03-.14l12.05-17.48c1.66-2.4 1.56-5.33-.17-6.53zm-21.4 32.72-2.08-1.45.65-2.1 3.17 2.35-1.74 1.2zm-2.58.15 1.17.82-1.81 1.26.64-2.08zm22.84-27.25L39.3 34.91c-.18.23-.34.43-.51.61l-3.86-2.87c.19-.31.44-.69.67-1.03L52 7.87c.69-1.03 1.71-1.78 2.66-1.96.35-.07.84-.09 1.23.18l.33.25c1 .68.91 2.7-.2 4.31z"></path>
  </symbol>

<!-- * Thought  -->

  <symbol xmlns="http://www.w3.org/2000/svg" xml:space="preserve" fill-rule="evenodd" clip-rule="evenodd" image-rendering="optimizeQuality" shape-rendering="geometricPrecision" text-rendering="geometricPrecision" viewBox="0 0 1707 1707" id="thought">
    <path d="M226 1573v-273c0-30 46-30 46 0v273h497v-273c0-30 45-30 45 0v273h181v-225c0-119-112-217-252-224-84 173-372 174-457 1-134 11-240 109-240 223v225h180zm1157-411h-7c0 57 8 73-36 73-36 101-163 102-199 0-44 0-36-16-36-73-38 0-29-30-29-69-16 0-37 0-37-22 0-292-129-244-129-450 0-182 148-331 331-331 182 0 330 149 330 331 0 206-128 158-128 450 0 22-21 22-37 22 0 26 7 69-23 69zm-262-45h239v-24h-239v24zm30 72h180v-27h-180v27zm40 46c24 41 75 41 99 0h-99zm-107-187h313c7-278 129-248 129-427 0-157-128-285-285-285-158 0-286 128-286 285 0 179 123 149 129 427zm157-799c-13 0-23-10-23-23V111c0-29 45-29 45 0v115c0 13-10 23-22 23zm-199 53c-7 0-15-4-19-11l-58-100c-14-25 25-48 40-23l57 100c9 15-3 34-20 34zM897 447c-13 0-94-51-111-60-25-15-2-54 23-40l100 58c20 11 10 42-12 42zm542-145c-17 0-28-19-20-34l58-100c15-25 54-2 39 23l-57 100c-4 7-12 11-20 11zm145 145c-22 0-31-31-11-42l99-58c26-14 48 25 23 40-17 9-98 60-111 60zm-566 1171H23c-13 0-23-10-23-23v-247c0-141 125-257 287-269l60-104c-49-45-81-111-81-183v-81c-8-31-51-213 98-314 47-32 98-48 151-48 97 0 168 52 171 54 151 114 91 279 77 311v78c0 72-31 137-81 183l60 104c166 6 298 125 298 269v247c0 13-10 23-22 23zm-692-515c67 141 311 141 377 0l-57-100c-79 49-183 49-262 0l-58 100zm311-150c1-1 3-2 4-3 47-37 77-94 77-158v-83c-9-114-42-171-99-171-46 0-98 35-115 49-22 18-48-21-102-21-89 0-90 143-90 146v80c0 167 193 262 325 161zm642-93c-109 0-95 15-106-77-13-5-26-13-37-22-85 37-66 41-120-53-6-10-3-22 6-29l46-34v-44c-74-55-68-36-14-130 6-10 18-14 29-9l53 22c11-9 24-16 37-22 11-91-3-76 106-76 12 0 21 8 23 20l6 56c14 6 26 13 38 22 85-36 65-41 119 53 6 10 3 23-6 30l-46 34v44c74 55 69 35 14 130-6 10-18 14-29 9l-52-23c-12 9-24 17-38 22l-6 57c-2 11-11 20-23 20zm-56-45h36c4-33 1-63 21-70 38-12 50-40 71-31l47 20 18-31c-67-49-47-28-47-80 0-53-20-31 47-80l-18-32c-30 13-55 31-71 16-30-26-60-23-62-46l-6-50h-36c-4 32-2 63-22 69-37 13-50 41-71 31l-46-20-18 32c66 49 46 27 46 80 0 52 20 31-46 80l18 31c29-12 55-30 71-16 29 27 59 23 62 46l6 51zm18-106c-48 0-87-38-87-86s39-87 87-87 86 39 86 87-38 86-86 86zm0-127c-54 0-54 82 0 82s54-82 0-82zm-622-90c43 0 94 20 123 101-5-163-209-256-353-159-59 40-81 96-88 146 42-69 114-72 186-37 24-17 77-51 132-51z"></path>
  </symbol>

  <!-- * Quote  -->

  <symbol xmlns="http://www.w3.org/2000/svg" id="quote" viewBox="0 0 32 32" >
    <path d="M25 20c-3.866 0-7-3.134-7-7s3.134-7 7-7 7 3.134 7 7l0.031 1c0 7.732-6.268 14-14 14v-4c2.671 0 5.182-1.040 7.071-2.929 0.364-0.364 0.695-0.75 0.995-1.157-0.357 0.056-0.724 0.086-1.097 0.086zM7 20c-3.866 0-7-3.134-7-7s3.134-7 7-7 7 3.134 7 7l0.031 1c0 7.732-6.268 14-14 14v-4c2.671 0 5.182-1.040 7.071-2.929 0.364-0.364 0.695-0.75 0.995-1.157-0.357 0.056-0.724 0.086-1.097 0.086z"></path>

  <!-- * Quote  -->

    <symbol id="cross" viewBox="0 0 32 32">
      <path d="M23.733 10.304 22.229 8.8l-5.963 5.963L10.303 8.8l-1.504 1.504 5.963 5.963-5.963 5.963 1.504 1.504 5.963-5.963 5.963 5.963 1.504-1.504-5.963-5.963 5.963-5.963z"/>
    </symbol>
</symbol>
</svg>